<?xml version="1.0" encoding="UTF-8" standalone="no"?>
<svg
   xmlns:dc="http://purl.org/dc/elements/1.1/"
   xmlns:cc="http://creativecommons.org/ns#"
   xmlns:rdf="http://www.w3.org/1999/02/22-rdf-syntax-ns#"
   xmlns:svg="http://www.w3.org/2000/svg"
   xmlns="http://www.w3.org/2000/svg"
   id="0f515900-a45f-11f0-a558-0242ac110003"
   version="1.1"
   width="841.88976378pt"
   viewBox="0 0 841.88976378 595.275590551"
   height="595.275590551pt">
  <metadata
     id="metadata37">
    <rdf:RDF>
      <cc:Work
         rdf:about="">
        <dc:format>image/svg+xml</dc:format>
        <dc:type
           rdf:resource="http://purl.org/dc/dcmitype/StillImage" />
      </cc:Work>
    </rdf:RDF>
  </metadata>
  <defs
     id="defs35" />
  <g
     id="g2" />
  <g
     id="g26">
    <g
       id="g24">
      <path
         id="path4"
         d="M 539.7083,267.089 L 437.2097,42.0758 C 429.0202,26.3435 410.7779,26.6627 403.7591,42.0709 L 301.2608,267.0836 C 293.1653,283.507 293.6255,311.9311 300.0131,325.9537 L 329.2333,390.1006 C 322.9541,394.7742 316.7426,399.7846 310.618,405.1284 328.646,423.0954 335.042,443.8323 339.9935,468.4942 345.2417,462.0798 350.9414,456.2711 356.9955,451.0467 372.5785,485.2561 388.1761,519.4582 403.7591,553.6682 410.7779,569.0764 429.0202,569.3955 437.2097,553.6632 452.7922,519.4553 468.3882,485.2555 483.9697,451.0498 490.0287,456.2736 495.72,462.0813 500.9628,468.4942 505.9226,443.8323 512.3116,423.0954 530.3435,405.1284 524.2226,399.7863 518.0148,394.7771 511.7316,390.1046 L 540.9501,325.962 C 548.0325,307.7145 547.2681,283.6847 539.7083,267.089 Z"
         style="fill-rule:evenodd;fill:#eceded;" />
      <g
         id="g14">
        <path
           id="path6"
           d="M 379.7558,396.4929 L 386.6787,394.8263 C 387.026,396.4784 387.0117,398.0173 386.6383,399.4468 386.265,400.8766 385.5509,402.1819 384.5015,403.3598 383.4544,404.5421 381.9179,405.6614 379.902,406.7239 377.4504,408.0159 375.2871,408.7732 373.4249,408.9943 371.5551,409.2142 369.6566,408.8694 367.7337,407.9574 365.8161,407.0424 364.2345,405.4159 362.9969,403.0675 361.3459,399.9348 361.0679,397.002 362.1676,394.2775 363.2652,391.5486 365.6304,389.2271 369.2576,387.3153 372.0979,385.8185 374.5821,385.123 376.7181,385.2302 378.8537,385.3375 380.8414,386.1815 382.6807,387.7625 L 377.1341,392.1547 C 376.6147,391.6912 376.1662,391.3871 375.7881,391.2429 375.1654,391.0025 374.5066,390.9107 373.8169,390.9645 373.1223,391.0207 372.4295,391.2338 371.7314,391.6018 370.1564,392.4317 369.2247,393.6042 368.9467,395.113 368.7295,396.2408 369.064,397.6519 369.958,399.3484 371.0655,401.45 372.2057,402.6844 373.3728,403.0658 374.5449,403.4446 375.815,403.2706 377.185,402.5487 378.5186,401.8458 379.3615,401.0018 379.7119,400.012 380.0648,399.0269 380.0774,397.8547 379.7558,396.4929 Z"
           style="stroke-width:0.216;stroke:#2d2c2b;fill-rule:evenodd;stroke-miterlimit:10.433;fill:#006da5;" />
        <path
           id="path8"
           d="M 393.3016,401.3907 L 389.8386,380.7846 402.6567,378.6306 C 405.0323,378.2312 406.8801,378.0934 408.1891,378.2237 409.5031,378.3481 410.6222,378.8015 411.5466,379.5884 412.4704,380.3703 413.0401,381.4193 413.2602,382.7289 413.453,383.8755 413.3227,384.9087 412.8769,385.8371 412.4253,386.7665 411.7268,387.5745 410.7885,388.265 410.1824,388.7023 409.3303,389.1265 408.2243,389.5297 409.1824,389.6298 409.8917,389.7724 410.3572,389.9554 410.6637,390.0768 411.1366,390.3662 411.7671,390.8286 412.4007,391.2932 412.7973,391.6881 413.0604,391.9282 L 418.6699,397.055 411.5269,398.2944 404.4785,392.9069 C 403.7028,392.3138 402.7148,391.946 402.2616,391.7749 401.6601,391.5476 400.9998,391.4984 400.2985,391.6163 L 399.6207,391.7303 401.0259,400.0927 393.3016,401.3907 Z M 398.966,387.8345 L 402.2109,387.2892 C 402.5589,387.2307 403.2212,387.0255 404.198,386.6691 404.6936,386.497 405.0745,386.2109 405.3409,385.811 405.6017,385.412 405.6971,384.9865 405.6214,384.5356 405.5093,383.8687 405.1688,383.403 404.5991,383.1337 404.0286,382.8596 403.0427,382.8429 401.6402,383.0785 L 398.262,383.6463 398.966,387.8345 Z"
           style="stroke-width:0.216;stroke:#2d2c2b;fill-rule:evenodd;stroke-miterlimit:10.433;fill:#006da5;" />
        <path
           id="path10"
           d="M 442.1134,395.6721 L 431.1492,394.0549 428.5254,397.872 421.3502,397.393 435.8359,377.8278 441.9395,378.7041 450.196,401.6209 443.3608,400.0471 442.1134,395.6721 Z M 440.7351,391.3652 L 437.8855,383.9183 433.4248,390.2957 440.7351,391.3652 Z"
           style="stroke-width:0.216;stroke:#2d2c2b;fill-rule:evenodd;stroke-miterlimit:10.433;fill:#006da5;" />
        <path
           id="path12"
           d="M 471.3266,400.8839 L 477.077,405.0835 C 476.0421,406.4175 474.8597,407.4024 473.528,408.0426 472.1964,408.6832 470.7393,408.9834 469.1623,408.9455 467.5831,408.9122 465.7353,408.465 463.621,407.6156 461.0495,406.5824 459.0724,405.4232 457.6989,404.1464 456.3214,402.8631 455.3556,401.1925 454.8066,399.1364 454.2634,397.0823 454.4802,394.8238 455.4698,392.3605 456.7899,389.0748 458.8461,386.9651 461.6349,386.0407 464.4256,385.1117 467.7263,385.4126 471.5308,386.9413 474.5099,388.1382 476.6476,389.582 477.9479,391.2799 479.2482,392.9776 479.8909,395.0393 479.8756,397.4647 L 472.9378,396.078 C 472.9552,395.3819 472.8968,394.8432 472.7622,394.4616 472.5423,393.8313 472.1861,393.2695 471.6987,392.7786 471.2064,392.2855 470.5958,391.8951 469.8635,391.601 468.2115,390.9372 466.7147,390.9856 465.3846,391.7499 464.3841,392.314 463.5246,393.4821 462.8097,395.2615 461.9241,397.4658 461.7208,399.1339 462.185,400.2706 462.6549,401.4091 463.6092,402.2649 465.0462,402.8424 466.445,403.4042 467.634,403.5008 468.6153,403.1275 469.5948,402.759 470.4967,402.0104 471.3266,400.8839 Z"
           style="stroke-width:0.216;stroke:#2d2c2b;fill-rule:evenodd;stroke-miterlimit:10.433;fill:#006da5;" />
      </g>
      <path
         id="path16"
         d="M 394.9045,315.0951 C 388.8796,315.8243 381.1016,317.9349 377.0648,322.0999 375.1731,324.0516 375.9494,327.6797 380.6717,328.6887 385.2598,329.6692 445.1712,325.8594 463.6973,306.7298 470.3322,299.8789 451.8022,300.8075 448.5105,303.2404 454.5966,302.8722 460.0268,303.3879 455.9594,307.7755 445.8753,318.6531 402.5283,324.8333 391.3375,323.0422 383.4194,321.775 390.4257,317.1567 394.9045,315.0951 Z"
         style="fill-rule:evenodd;fill:#e31c2a;" />
      <path
         id="path18"
         d="M 473.5127,323.7643 L 497.572,323.7643 497.572,268.9656 473.5127,268.9656 473.5127,323.7643 Z M 497.572,262.5986 L 497.572,259.1023 505.1305,259.1023 505.1305,334.0716 497.572,334.0716 497.572,330.1314 473.5127,330.1314 473.5127,334.0716 465.9541,334.0716 465.9541,259.1023 473.5127,259.1023 473.5127,262.5986 497.572,262.5986 Z M 489.456,297.5692 L 493.9698,297.5692 496.7179,308.1383 491.6124,308.1383 489.456,299.8446 489.456,310.6394 496.2986,310.6394 496.2986,317.0065 474.8916,317.0065 474.8916,310.6394 481.8974,310.6394 481.8974,294.0768 474.8916,294.0768 474.8916,287.7098 481.8974,287.7098 481.8974,281.2684 474.8916,281.2684 474.8916,274.9014 496.2986,274.9014 496.2986,281.2684 489.456,281.2684 489.456,287.7098 496.2986,287.7098 496.2986,294.0768 489.456,294.0768 489.456,297.5692 Z"
         style="fill-rule:evenodd;fill:#006da5;" />
      <path
         id="path20"
         d="M 342.0447,309.4393 L 350.2994,309.4393 350.2994,279.2547 342.0447,279.2547 342.0447,309.4393 Z M 342.0447,272.8876 L 350.2994,272.8876 350.2994,259.1399 357.8579,259.1399 357.8579,272.8876 366.2036,272.8876 366.2036,270.1757 373.7621,270.1757 373.7621,319.4615 366.2036,319.4615 366.2036,315.8063 357.8579,315.8063 357.8579,334.0956 350.2994,334.0956 350.2994,315.8063 342.0447,315.8063 342.0447,319.4615 334.4862,319.4615 334.4862,270.1757 342.0447,270.1757 342.0447,272.8876 Z M 357.8579,279.2547 L 357.8579,309.4393 366.2036,309.4393 366.2036,279.2547 357.8579,279.2547 Z"
         style="fill-rule:evenodd;fill:#006da5;" />
      <path
         id="path22"
         d="M 525.1113,270.8613 L 435.1663,73.4066 C 427.9797,59.6012 411.9717,59.8812 405.8125,73.4022 L 315.8678,270.8565 C 308.7637,285.2684 309.1677,310.2112 314.7729,322.5163 L 345.7812,390.5886 C 344.292,391.5662 342.8109,392.5749 341.3393,393.6137 341.7473,394.5433 342.1589,395.4775 342.5737,396.4162 337.8582,399.7842 333.2105,403.4632 328.6425,407.4501 339.5227,418.2911 343.3777,430.8037 346.3705,445.6843 351.4807,439.4342 357.2975,434.1355 363.6139,429.7367 L 405.8125,522.3747 C 411.9717,535.8955 427.9797,536.1758 435.1663,522.3703 L 477.367,429.7278 C 477.3637,429.7255 477.3604,429.7235 477.3573,429.7212 484.1308,434.3142 490.1049,439.786 494.9513,446.0689 497.676,431.7316 501.9416,418.5493 512.3625,407.6758 507.8255,403.5958 503.2148,399.8508 498.544,396.4354 498.9176,395.5588 499.292,394.6827 499.6656,393.8061 498.1727,392.7281 496.6699,391.6833 495.1578,390.6718 L 526.201,322.5236 C 532.416,306.511 531.7452,285.4244 525.1113,270.8613 Z M 355.6536,384.615 L 327.4268,322.6516 C 321.0684,306.9766 321.3218,286.528 328.489,270.794 L 395.3911,123.9273 416.3893,156.9102 416.3893,179.9816 C 416.3893,181.1218 415.8076,181.6916 414.8575,181.9798 406.1493,184.6209 399.9171,191.9499 399.9171,200.4525 399.9171,204.7498 401.5147,208.7314 404.2152,211.9681 401.5149,215.2047 399.9171,219.1849 399.9171,223.4815 399.9171,227.7788 401.5149,231.7589 404.2152,234.9958 401.5149,238.2325 399.9171,242.2138 399.9171,246.5105 399.9171,255.1068 406.3055,262.4397 415.1426,265.0709 415.9324,265.2943 416.3893,265.6336 416.3893,266.5226 L 416.3893,277.9076 C 396.1703,279.9342 380.2007,296.7523 379.5098,317.3273 381.5703,316.3694 383.7401,315.5424 385.8603,314.8926 387.775,297.4866 402.5955,283.868 420.4969,283.868 432.7776,283.868 443.6094,290.2766 449.8182,299.9207 451.7501,299.3306 453.9907,298.9301 456.2838,298.7234 449.8569,287.2787 438.1004,279.1993 424.4181,277.8907 L 424.4181,263.0088 C 424.4181,260.5819 422.6575,259.0992 420.3484,258.8625 413.4261,258.0123 408.0706,252.79 408.0706,246.5107 408.0706,244.1082 408.856,241.8607 410.2117,239.9535 413.7114,241.9321 417.8764,243.0824 422.3391,243.0824 426.8019,243.0824 430.9669,241.9321 434.4666,239.9535 440.5051,236.9398 439.5832,232.6078 434.4666,230.0385 430.9667,228.0603 426.8019,226.9104 422.3391,226.9104 417.8764,226.9104 413.7116,228.0603 410.2117,230.0385 408.8558,228.1312 408.0706,225.8844 408.0706,223.4817 408.0706,221.0793 408.8558,218.8326 410.2117,216.9254 413.712,218.9036 417.8764,220.0535 422.3391,220.0535 426.8019,220.0535 430.9663,218.9036 434.4666,216.9254 440.2699,213.8757 439.996,209.8699 434.4663,207.0105 430.9667,205.0319 426.8019,203.8814 422.3391,203.8814 417.8764,203.8814 413.7116,205.0319 410.212,207.0105 408.8558,205.1033 408.0706,202.8554 408.0706,200.4527 408.0706,194.1204 413.5525,189.1244 420.5263,188.0806 422.1046,187.8444 424.4181,186.468 424.4181,183.4857 L 424.4181,156.7046 445.462,123.6497 512.565,270.9622 C 520.4293,287.7499 520.041,308.4027 513.6038,322.5339 L 485.3198,384.6247 C 465.8856,373.7035 445.2004,367.9738 424.4181,367.3662 L 424.4181,359.5406 C 445.1795,357.5554 461.5104,339.9827 461.5104,318.7166 461.5104,316.5452 461.3383,314.4123 461.0104,312.3305 459.1839,313.4095 457.2365,314.432 455.1858,315.3982 455.2898,316.4908 455.3455,317.5975 455.3455,318.7166 455.3455,337.91 439.6905,353.5649 420.4969,353.5649 409.5153,353.5649 399.6937,348.438 393.2981,340.4579 395.9779,336.4035 398.7939,332.5636 401.7499,328.9591 400.1004,329.1674 398.4954,329.355 396.9406,329.5251 395.4147,332.7593 394.069,336.2698 393.006,340.0899 390.7403,337.1839 388.9243,333.9119 387.6629,330.3804 385.259,330.5569 383.1158,330.6754 381.2898,330.7441 386.0624,346.2337 399.7951,357.8599 416.3893,359.5235 L 416.3893,367.3857 C 395.7191,368.0923 375.0934,373.8584 355.6572,384.6198 L 355.6536,384.615 Z M 397.5904,119.0992 L 416.0662,78.5399 C 418.4395,73.3298 422.3296,73.329 424.9139,78.5399 L 443.3891,119.0992 420.3382,119.0992 420.3382,119.1025 420.3382,119.0992 397.5904,119.0992 Z M 469.0433,420.1698 C 455.6152,411.7352 440.0974,407.3757 424.4224,406.7222 L 424.4224,443.0544 453.2841,443.0544 449.0841,452.2885 391.7295,452.2885 387.5297,443.0544 416.399,443.0544 416.399,406.721 C 400.9626,407.3724 385.5583,411.7631 371.7566,419.9681 L 416.0662,517.2403 C 418.4378,522.4465 422.3296,522.4624 424.9139,517.2331 L 469.1095,420.2114 469.0433,420.1698 Z M 371.4627,420.1429 C 371.3971,420.1822 371.3317,420.2215 371.2662,420.261 371.3317,420.2215 371.3971,420.1822 371.4627,420.1429 Z M 389.8208,308.1673 C 405.1253,307.0486 421.1011,305.1244 435.3316,301.8575 425.7035,306.4316 417.018,312.8036 409.2013,320.6838 406.2964,320.9895 403.7286,321.1132 401.7118,321.0032 404.511,316.7008 407.5234,313.0022 410.3611,309.7783 402.8431,309.7334 396.5333,309.1517 389.8208,308.1673 Z M 398.5471,341.4613 C 400.6008,336.9986 402.6027,332.6399 405.0364,328.5247 407.9446,328.1238 410.9604,327.6627 414.0332,327.1377 415.6662,331.1011 419.8484,333.7454 425.1286,332.8693 435.3664,331.1708 440.2846,326.4807 441.8985,320.5423 444.6021,319.6747 447.2346,318.7408 449.7626,317.7381 449.3069,329.7088 440.7505,341.4613 424.9944,341.4613 L 398.5471,341.4613 Z M 410.7568,320.5063 C 412.658,318.3271 414.8203,316.2631 417.3421,314.3428 415.5362,316.1865 414.3872,318.1533 413.7908,320.0936 412.7524,320.2484 411.7388,320.3865 410.7568,320.5063 Z M 442.4039,313.191 C 442.1507,310.5666 441.5044,307.8527 440.5868,305.1559 437.292,295.4721 423.2154,293.509 412.2406,294.2053 434.1046,288.76 446.0199,298.4711 449.0196,310.4773 447.2867,311.3593 445.0225,312.2786 442.4039,313.191 Z M 405.5281,292.46 C 407.6724,292.46 409.4213,294.209 409.4213,296.3533 409.4213,298.4976 407.6724,300.2465 405.5281,300.2465 403.3838,300.2465 401.6348,298.4976 401.6348,296.3533 401.6348,294.209 403.3838,292.46 405.5281,292.46 Z M 496.2369,401.8476 C 492.4086,410.8291 488.5807,419.8113 484.7533,428.7934 487.1131,430.7379 489.3536,432.8139 491.4565,435.0198 494.683,423.3161 497.5085,416.9726 504.1974,408.539 501.6411,406.1583 498.9817,403.9311 496.2369,401.8476 Z M 356.7659,428.218 C 352.9167,419.4665 348.7527,410.2948 344.7728,401.3685 341.8809,403.3285 339.0927,405.4049 336.4226,407.5951 344.7192,417.5526 346.0516,422.5619 349.539,434.4429 351.8396,432.2281 354.2534,430.1535 356.7659,428.218 Z M 348.2099,395.7063 C 393.7792,365.6522 446.4256,365.9342 492.795,395.6907 488.191,406.4928 486.0877,410.7543 481.4835,421.5563 448.0146,396.5285 396.6783,392.3967 359.845,421.5563 355.1818,410.9313 352.8731,406.3313 348.2099,395.7063 Z M 404.4164,480.1831 L 436.3965,480.1831 432.1965,489.4172 408.6163,489.4172 404.4164,480.1831 Z M 395.9293,461.5225 L 444.8841,461.5225 440.6841,470.7566 400.1291,470.7566 395.9293,461.5225 Z M 416.3893,145.9474 L 416.3893,125.5647 403.4088,125.5647 416.3893,145.9474 Z M 424.4181,125.5647 L 424.4181,145.7383 437.2614,125.5647 424.4181,125.5647 Z M 427.8155,211.9676 C 426.1277,211.3506 424.2778,211.0089 422.3391,211.0089 420.4005,211.0089 418.5506,211.3506 416.8628,211.9676 418.5508,212.5845 420.4005,212.926 422.3391,212.926 424.2778,212.926 426.1275,212.5845 427.8155,211.9676 Z M 427.8155,234.9962 C 426.1277,235.6133 424.2778,235.955 422.3391,235.955 420.4005,235.955 418.5506,235.6133 416.8628,234.9962 418.5504,234.3793 420.4005,234.0378 422.3391,234.0378 424.2778,234.0378 426.1279,234.3793 427.8155,234.9962 Z"
         style="fill-rule:evenodd;fill:#006da5;" />
    </g>
  </g>
  <g
     id="g28" />
  <g
     id="g30" />
</svg>
